<svg width="1024" height="1024" xmlns="http://www.w3.org/2000/svg" xmlns:svg="http://www.w3.org/2000/svg">
 <g class="layer">
  <title>Layer 1</title>
  <g id="svg_5">
   <path d="m494.87725,126.51605l23.68139,92.29831l23.68139,-92.29831l-47.36279,0z" id="svg_1"/>
   <path d="m590.59863,244.02058l57.25856,-79.38402l-44.49986,-14.65695l-12.7587,94.04096z" id="svg_2"/>
   <path d="m390.28702,164.60544l57.25856,79.38402l-12.69646,-94.04096l-44.5621,14.65695z" id="svg_3"/>
   <path d="m763.8369,799.36639c-32.36353,32.36353 -65.81623,46.89601 -98.52207,50.039c5.22796,-4.35663 10.33144,-9.02445 15.31044,-14.00345c89.77769,-89.80881 107.54652,-186.15256 52.59074,-286.63512l-34.26178,-60.27708l-29.71844,-62.85994c-9.80242,-21.0363 -7.31291,-36.87576 7.6241,-48.42083a26.0153,26.0153 0 0 1 20.5384,-4.97901c10.64262,1.74265 20.5384,8.71326 27.35341,18.82686l88.87525,156.30965c36.68905,61.05505 42.9128,159.29705 -49.79005,251.99991m-413.56863,-16.43072l-156.21629,-156.21629a31.11878,31.11878 0 0 1 22.00098,-52.93305c7.93529,0 15.93282,3.04964 22.00098,9.08668l81.12667,81.12667a13.7545,13.7545 0 0 0 19.41812,-19.41812l-81.12667,-81.15779l-54.45787,-54.45787a31.05655,31.05655 0 1 1 43.87748,-43.97084l129.26743,129.32966a13.69226,13.69226 0 0 0 19.41812,0a13.69226,13.69226 0 0 0 0,-19.41812l-129.20519,-129.23631l-36.47121,-36.4401a31.05655,31.05655 0 0 1 0,-43.87748a31.67892,31.67892 0 0 1 43.87748,0l36.47121,36.40898l129.23631,129.20519a13.59891,13.59891 0 0 0 19.41812,0a13.7545,13.7545 0 0 0 0,-19.41812l-129.23631,-129.17407a30.74536,30.74536 0 0 1 -9.05557,-21.93874a30.8076,30.8076 0 0 1 9.02445,-21.96986a31.11878,31.11878 0 0 1 43.93972,0l217.58253,217.61365a13.78562,13.78562 0 0 0 22.09434,-15.59051l-42.01036,-88.87525c-9.80242,-21.0363 -7.31291,-36.87576 7.65522,-48.45195a26.45097,26.45097 0 0 1 20.5384,-4.97901c10.64262,1.74265 20.50728,8.71326 27.35341,18.85798l82.46478,145.13801c48.94985,89.49762 33.20374,172.55366 -48.0474,253.8048c-43.44182,43.47294 -97.83746,61.17953 -157.5544,51.40823c-53.30648,-8.89997 -107.76435,-38.83624 -153.35337,-84.45638l-0.03112,0zm121.30102,-470.45377l79.72632,79.72632c-15.46604,18.8891 -17.51988,44.00196 -4.82341,71.0753l8.24648,17.48876l-132.47266,-132.47266a30.49641,30.49641 0 0 1 -3.6409,-13.84786c0,-8.30872 3.23635,-16.08841 9.08668,-21.96986a31.83452,31.83452 0 0 1 43.87748,0zm276.55263,64.10469c-11.66954,-17.33316 -28.06914,-28.50481 -46.24251,-31.46109a54.08445,54.08445 0 0 0 -41.76141,10.33144c-11.70066,9.02445 -18.98246,20.41392 -22.15657,33.1415a65.34945,65.34945 0 0 0 -34.07507,-17.48876a55.26696,55.26696 0 0 0 -30.86983,3.9832l-82.02911,-82.02911a58.59667,58.59667 0 0 0 -82.71373,0a57.94318,57.94318 0 0 0 -14.87478,26.35761a58.69003,58.69003 0 0 0 -83.11827,-0.37343a58.09877,58.09877 0 0 0 -15.65275,28.28697c-23.46356,-23.46356 -61.98862,-23.46356 -84.11407,-1.36923a58.53443,58.53443 0 0 0 0,82.71373c-8.96221,3.73425 -18.82686,8.96221 -26.88663,17.02197a58.62779,58.62779 0 0 0 0,82.74485l19.41812,19.35588a58.47219,58.47219 0 0 0 -28.31809,98.33536l156.18517,156.21629c49.63446,49.60334 109.38252,82.30918 168.29038,92.08048a222.81049,222.81049 0 0 0 36.50233,3.04964c31.92787,0 62.14421,-7.46851 89.99552,-21.78315c8.68214,1.24475 17.27092,2.02272 25.76635,2.02272c47.61174,0 92.39167,-19.5426 131.81917,-58.93898c103.8745,-103.8745 95.93921,-215.59093 54.08445,-285.23477l-89.24867,-156.93203l0,-0.03112z" fill="black" id="svg_4"/>
  </g>
 </g>
</svg>
